<svg width="24" height="24" fill="none" xmlns="http://www.w3.org/2000/svg"><path fill-rule="evenodd" clip-rule="evenodd" d="M3.71 3.375H1v1.25h2.237l2.813 9.993.128.455H18.477l.135-.442 2.492-8.149.247-.808h-14.7v1.25h13.01l-2.109 6.9H7.125L4.312 3.83l-.128-.456H3.71zM8.43 17.196a1.09 1.09 0 1 0 0 2.179 1.09 1.09 0 0 0 0-2.179zm-2.34 1.09a2.34 2.34 0 1 1 4.679 0 2.34 2.34 0 0 1-4.679 0zm10.34-1.09a1.09 1.09 0 1 0 0 2.179 1.09 1.09 0 0 0 0-2.179zm-2.34 1.09a2.34 2.34 0 1 1 4.679 0 2.34 2.34 0 0 1-4.679 0z" fill="#161412"/></svg>